<?xml version="1.0" standalone="no"?>
<!DOCTYPE svg PUBLIC "-//W3C//DTD SVG 20010904//EN"
 "http://www.w3.org/TR/2001/REC-SVG-20010904/DTD/svg10.dtd">
<svg version="1.0" xmlns="http://www.w3.org/2000/svg"
 width="943.000000pt" height="1280.000000pt" viewBox="0 0 943.000000 1280.000000"
 preserveAspectRatio="xMidYMid meet">
<metadata>
Created by potrace 1.15, written by Peter Selinger 2001-2017
</metadata>
<g transform="translate(0.000000,1280.000000) scale(0.100000,-0.100000)"
fill="#ffffff" stroke="none">
<path d="M2909 12785 c-182 -36 -357 -163 -429 -308 -16 -34 -53 -149 -80
-256 -56 -213 -136 -467 -150 -476 -12 -7 -57 16 -119 60 -52 37 -134 80 -195
102 -109 40 -314 96 -449 124 -267 54 -438 54 -652 -1 -141 -36 -192 -58 -259
-109 -28 -21 -91 -60 -140 -87 -155 -85 -224 -164 -317 -358 -73 -155 -100
-321 -115 -721 -7 -173 4 -280 35 -349 10 -23 68 -106 128 -186 176 -234 311
-467 331 -570 6 -30 21 -107 32 -170 12 -63 44 -205 71 -315 l50 -200 10 -335
c6 -184 9 -459 7 -610 l-5 -275 -47 -235 c-55 -272 -77 -360 -114 -450 -38
-94 -34 -128 27 -258 33 -71 55 -133 61 -172 20 -139 75 -238 204 -365 98 -98
174 -150 322 -224 l113 -56 -46 -70 c-99 -152 -106 -178 -162 -584 -17 -123
-33 -206 -41 -211 -6 -4 -35 -10 -63 -13 -83 -10 -153 -51 -248 -146 -104
-105 -131 -150 -164 -277 -32 -119 -54 -170 -89 -207 l-26 -28 0 -235 c0 -129
-5 -310 -10 -402 l-11 -167 31 -100 c37 -118 35 -73 51 -1375 5 -454 14 -861
19 -905 46 -398 62 -515 79 -582 11 -43 32 -168 46 -278 29 -228 59 -368 82
-387 13 -10 93 -13 382 -12 368 0 653 13 876 39 463 54 736 89 905 116 212 34
275 35 765 10 99 -6 326 -10 505 -11 459 -2 849 -16 950 -34 138 -25 326 -37
588 -37 248 -1 280 1 382 27 30 7 120 20 200 28 89 9 168 22 203 35 31 12 83
31 115 42 48 18 92 23 282 30 392 15 467 28 685 122 77 33 239 92 360 132 237
77 247 82 374 158 116 69 161 84 308 102 185 23 239 38 365 101 167 83 430
240 496 294 21 18 14 51 -43 190 -31 74 -60 153 -66 174 -6 21 -46 119 -90
217 -43 98 -79 184 -79 191 0 29 -55 127 -192 345 -78 125 -178 280 -221 343
-109 159 -156 238 -168 285 -6 22 -50 121 -99 220 -138 278 -233 502 -238 561
-3 36 3 75 22 137 62 203 110 508 110 702 0 123 -5 169 -43 375 -24 129 -56
316 -71 415 -29 188 -43 234 -130 420 -81 175 -205 517 -240 663 -14 61 -5 81
28 63 24 -13 62 -15 62 -3 0 5 -27 26 -60 47 -55 35 -78 61 -66 73 5 4 29 -8
153 -75 50 -27 77 -27 55 0 -7 8 -49 37 -95 65 -92 56 -157 120 -157 155 0 18
-22 110 -46 190 -8 25 12 22 114 -23 166 -72 291 -107 302 -85 3 5 -47 28
-110 52 -63 23 -165 67 -226 97 l-111 54 -30 83 c-17 46 -39 110 -49 142 -20
66 -24 55 70 216 35 59 59 115 66 150 6 31 49 175 96 321 95 300 119 394 134
530 13 117 14 723 0 840 -23 206 -62 462 -101 670 -70 367 -59 518 61 840 17
47 38 130 46 185 8 55 28 150 44 210 29 107 46 212 57 345 5 62 -2 110 -73
553 -22 142 -39 188 -90 256 -54 73 -244 255 -318 306 -29 20 -71 40 -92 45
-68 16 -363 33 -478 28 -186 -9 -365 -78 -502 -194 -44 -38 -159 -135 -255
-215 -96 -81 -223 -193 -284 -249 -172 -160 -198 -177 -292 -194 -47 -8 -118
-31 -169 -54 -49 -22 -107 -45 -129 -51 -73 -21 -255 -24 -530 -7 l-269 17
-116 81 c-219 154 -291 221 -372 343 -75 113 -127 167 -253 263 -55 42 -130
102 -167 133 -99 85 -138 103 -303 143 -252 60 -366 69 -506 41z m261 -149
c266 -73 344 -108 517 -230 148 -103 213 -163 293 -270 37 -50 90 -110 117
-132 67 -57 359 -271 408 -299 92 -54 264 -75 615 -75 408 0 583 24 702 96
132 80 305 233 364 322 19 28 39 52 44 52 13 0 141 102 320 253 91 78 172 147
182 155 26 22 146 59 252 77 117 19 342 22 436 5 106 -19 140 -40 270 -167
l122 -118 -63 -7 c-50 -5 -91 -21 -189 -69 -117 -59 -132 -70 -230 -168 -58
-58 -134 -143 -170 -189 -59 -75 -90 -120 -178 -260 -15 -24 -44 -67 -65 -95
-76 -104 -342 -676 -363 -782 -8 -45 19 -73 85 -85 82 -15 119 -12 164 14 47
27 126 46 191 46 82 0 182 -44 296 -129 59 -44 415 -393 430 -421 24 -45 108
-513 121 -675 6 -71 15 -137 20 -146 16 -31 23 -307 9 -387 -15 -88 -38 -119
-141 -187 -118 -79 -152 -79 -239 1 -39 37 -61 66 -68 91 -30 111 -117 322
-147 359 -65 79 -209 134 -353 134 -110 0 -171 -14 -277 -65 -112 -52 -201
-118 -256 -187 -43 -55 -160 -286 -178 -351 -9 -34 -7 -40 11 -55 11 -9 41
-34 65 -54 24 -21 51 -38 60 -38 8 0 28 -10 45 -21 50 -36 146 -60 289 -71
129 -11 142 -11 225 10 117 30 236 88 309 152 33 28 75 59 92 68 31 15 35 14
72 -6 21 -12 46 -22 55 -22 9 0 29 -9 45 -21 34 -25 102 -41 139 -33 50 12
140 63 201 114 l61 51 0 -125 c0 -260 -26 -403 -126 -696 -34 -102 -77 -237
-94 -300 -49 -182 -144 -336 -268 -437 -41 -33 -57 -41 -70 -34 -9 5 -91 78
-182 162 -91 83 -183 163 -205 177 -22 14 -69 47 -105 74 -75 57 -203 123
-219 113 -17 -10 -6 -20 67 -61 82 -46 140 -86 261 -183 142 -113 294 -254
345 -318 69 -88 74 -93 100 -93 41 0 135 -41 166 -73 38 -39 91 -197 67 -197
-22 0 -147 75 -218 130 -144 111 -218 176 -422 371 -116 109 -216 199 -223
199 -31 0 -10 -35 64 -107 278 -272 466 -432 661 -562 130 -88 178 -130 187
-168 15 -57 -12 -49 -163 52 -81 54 -161 110 -178 125 -16 15 -50 38 -75 52
-142 80 -177 107 -299 236 -98 105 -149 149 -230 203 -99 65 -147 85 -135 56
2 -7 48 -42 102 -77 72 -48 136 -105 249 -220 l152 -155 -49 -3 c-67 -4 -95
11 -156 88 -29 35 -57 66 -63 68 -23 8 -9 -38 29 -94 38 -56 51 -94 31 -94
-10 0 -147 164 -230 274 -69 92 -92 117 -103 110 -15 -10 37 -90 144 -220 57
-69 113 -142 126 -164 l23 -39 -25 -16 c-36 -24 -169 -58 -446 -116 -262 -54
-367 -89 -439 -145 -24 -19 -52 -34 -62 -34 -10 0 -53 -14 -96 -31 -163 -65
-264 -83 -468 -82 -178 0 -249 14 -449 84 -210 74 -275 89 -431 99 -226 14
-351 46 -527 136 -60 29 -117 54 -128 54 -29 0 -35 24 -14 57 54 85 220 286
259 313 25 17 119 59 210 94 169 65 215 88 215 108 0 17 -71 1 -157 -36 -91
-39 -182 -70 -189 -63 -2 2 23 38 57 80 59 72 63 76 113 82 272 34 366 54 366
75 0 12 -34 12 -120 1 -36 -5 -105 -13 -153 -17 l-89 -7 26 39 c14 22 29 55
32 74 10 52 29 84 79 133 25 25 45 50 45 56 0 43 -153 -121 -190 -203 -15 -34
-39 -72 -53 -84 -30 -28 -154 -75 -162 -62 -8 13 116 172 153 195 33 21 40 39
20 51 -7 4 -62 -46 -142 -128 -72 -75 -151 -149 -176 -166 -73 -48 -181 -99
-235 -110 -28 -6 -147 -38 -264 -71 -117 -34 -221 -61 -230 -61 -17 0 -139
116 -130 124 2 3 90 27 195 55 391 103 755 234 834 299 55 46 20 44 -81 -5
-52 -25 -143 -63 -204 -85 -107 -38 -567 -174 -673 -198 -97 -22 -111 -15
-267 146 -77 79 -143 144 -147 144 -16 0 -58 -101 -68 -161 -5 -35 -10 -116
-10 -180 l0 -116 -57 -21 c-32 -12 -113 -37 -180 -56 -66 -19 -132 -40 -145
-48 l-23 -13 32 -3 c31 -3 164 28 300 70 40 12 74 20 77 17 2 -2 7 -21 11 -41
6 -33 4 -38 -23 -52 -17 -9 -66 -22 -109 -30 -88 -15 -113 -24 -113 -37 0 -20
32 -20 141 0 135 25 137 24 171 -82 l23 -70 -25 -16 c-88 -58 -91 -90 -4 -48
l55 28 30 -32 c31 -33 37 -61 17 -76 -7 -5 -44 -22 -81 -38 -74 -30 -116 -59
-105 -71 5 -4 58 12 120 34 l112 42 35 -24 c51 -35 161 -140 161 -154 0 -6
-22 -23 -49 -37 -57 -29 -69 -42 -45 -52 11 -4 41 6 79 25 33 18 64 32 69 32
18 0 86 -63 86 -79 0 -22 -18 -38 -95 -84 -59 -35 -135 -102 -135 -119 0 -18
25 -6 89 41 80 59 191 131 202 131 5 0 47 -29 94 -65 48 -36 92 -65 99 -65 6
0 48 -22 91 -49 44 -26 113 -67 152 -90 40 -23 73 -46 73 -51 0 -23 162 -93
245 -105 28 -3 91 -17 140 -30 54 -14 152 -28 245 -35 236 -17 380 -42 380
-65 0 -2 -39 -24 -86 -49 -100 -53 -192 -116 -243 -166 -58 -57 -221 -427
-257 -585 -31 -130 -26 -426 10 -670 15 -104 37 -224 47 -265 46 -178 161
-351 287 -431 61 -38 134 -61 313 -95 127 -24 168 -28 349 -28 201 0 206 0
279 28 127 48 261 114 325 160 81 58 258 241 286 297 20 38 60 174 106 359 23
95 56 410 57 545 1 155 -9 212 -56 325 -19 47 -40 106 -47 130 -15 57 -102
218 -147 269 -18 22 -32 46 -31 53 2 7 -36 33 -91 62 -68 35 -90 51 -79 57 8
4 73 15 144 24 161 20 188 27 259 70 61 36 109 52 240 80 162 33 229 64 278
128 15 19 53 50 84 68 32 18 76 49 98 69 22 20 84 67 138 104 53 37 118 87
144 112 26 24 51 44 56 44 5 0 32 -20 60 -44 29 -24 106 -80 172 -124 66 -45
155 -113 197 -151 43 -39 87 -75 98 -81 41 -22 20 17 -51 96 -39 44 -84 96
-100 118 -16 21 -98 103 -182 181 -149 139 -177 175 -192 242 -3 18 -24 59
-45 92 -50 77 -72 120 -68 132 4 13 519 -333 551 -371 32 -38 57 -93 57 -125
0 -65 184 -580 285 -800 62 -134 84 -213 110 -390 33 -229 42 -354 24 -337
-22 20 -58 15 -68 -11 -5 -13 -29 -47 -54 -75 -47 -56 -137 -224 -137 -257 0
-11 -7 -38 -15 -60 -8 -22 -14 -58 -15 -79 0 -23 -7 -48 -17 -59 -25 -27 -29
-147 -9 -240 24 -109 66 -190 117 -227 58 -42 79 -37 102 24 10 27 27 62 38
78 31 42 77 179 90 261 14 94 29 109 29 30 0 -144 -82 -478 -150 -613 -15 -30
-97 -158 -182 -285 -84 -126 -172 -260 -196 -297 -49 -77 -101 -124 -155 -140
-44 -13 -67 -41 -67 -78 0 -59 59 -66 167 -18 40 17 75 30 77 27 7 -8 26 -634
20 -672 -4 -24 -14 -42 -28 -49 -33 -18 -44 -37 -76 -139 -31 -98 -49 -124
-104 -148 -43 -18 -50 -4 -37 76 15 94 33 448 25 503 -7 50 -22 85 -32 75 -3
-3 -10 -115 -14 -248 -7 -251 -21 -351 -56 -411 -12 -21 -26 -31 -43 -31 -19
0 -30 11 -54 60 -16 33 -35 75 -42 93 l-12 34 -31 -19 c-55 -31 -125 -140
-159 -245 -12 -37 -43 -68 -68 -68 -18 0 -17 41 8 221 17 125 20 192 17 355
-3 198 -9 234 -39 234 -5 0 -9 -89 -9 -199 0 -309 -29 -583 -65 -620 -22 -23
-40 0 -80 103 -39 102 -59 136 -79 136 -18 0 -55 -50 -103 -136 l-38 -69 -3
109 c-2 75 4 144 18 226 32 189 25 280 -48 595 -57 242 -66 309 -60 435 5 92
10 119 32 164 33 67 134 200 273 360 132 151 233 290 312 428 33 58 61 109 61
112 0 20 201 427 268 542 122 212 207 376 238 460 15 42 40 95 56 118 65 97
-2 170 -87 94 -41 -36 -64 -77 -95 -169 -12 -35 -45 -104 -74 -154 -146 -246
-276 -493 -338 -638 -136 -317 -213 -443 -420 -681 -160 -185 -192 -225 -263
-332 -75 -111 -85 -149 -85 -308 0 -170 16 -292 71 -559 55 -265 57 -306 25
-482 -9 -44 -21 -199 -27 -345 l-13 -265 -34 -32 c-37 -34 -89 -60 -99 -49 -4
3 -13 93 -20 199 -22 323 -52 501 -83 482 -16 -10 -12 -81 11 -190 14 -71 22
-157 26 -296 6 -191 5 -197 -16 -218 -15 -15 -33 -21 -65 -21 -42 0 -45 2 -76
51 -41 63 -94 106 -113 91 -7 -6 -26 -49 -42 -94 -21 -62 -38 -92 -67 -120
-43 -42 -83 -57 -101 -39 -8 8 -14 87 -19 239 -11 310 -22 441 -42 460 -8 9
-18 13 -22 9 -3 -3 -1 -71 5 -150 12 -154 15 -555 5 -581 -3 -9 -15 -16 -26
-16 -51 0 -129 72 -193 178 -27 46 -47 67 -60 67 -20 0 -54 -41 -118 -144 -39
-63 -66 -79 -107 -66 -40 13 -45 45 -42 315 4 422 -16 549 -38 239 -27 -385
-31 -433 -39 -447 -9 -15 -15 -5 -85 151 -31 69 -38 77 -63 77 -34 0 -75 -26
-112 -71 l-29 -34 -57 39 c-73 51 -98 85 -147 197 -74 173 -82 227 -83 539 l0
275 77 106 c42 58 119 148 171 200 52 53 116 129 143 170 71 111 144 256 144
287 0 44 -26 72 -66 72 -34 0 -36 -2 -73 -83 -57 -121 -153 -259 -261 -372
-53 -55 -132 -152 -176 -215 l-81 -115 -7 -194 c-4 -107 -12 -203 -18 -214 -5
-11 -10 -46 -10 -78 l0 -58 -36 -7 c-40 -8 -564 2 -602 11 -25 6 -26 7 -19 83
4 42 15 110 23 150 20 93 20 238 0 322 -20 88 -70 187 -149 299 -86 122 -125
191 -125 224 0 15 30 77 69 143 86 144 97 184 82 307 -23 195 -79 346 -171
462 -70 88 -288 270 -353 294 -41 16 -67 -1 -67 -43 0 -43 25 -74 119 -148
216 -170 291 -286 335 -517 29 -152 26 -162 -105 -359 -39 -59 -82 -128 -95
-155 -14 -26 -43 -66 -65 -88 -54 -54 -65 -83 -39 -109 37 -37 96 -24 158 34
l34 31 26 -34 c73 -91 155 -212 182 -266 54 -108 60 -296 15 -480 -8 -33 -14
-81 -15 -107 0 -53 -9 -58 -47 -28 -20 16 -29 18 -40 8 -28 -23 -44 -69 -59
-171 -19 -127 -30 -171 -48 -187 -21 -16 -24 16 -30 250 -3 174 -7 204 -30
280 -14 47 -26 98 -26 113 0 72 -40 157 -72 157 -19 0 -3 -171 20 -216 46 -90
63 -173 63 -304 0 -216 -26 -323 -73 -305 -9 4 -40 51 -68 106 -29 54 -56 99
-61 99 -15 0 -49 -53 -49 -78 0 -14 -7 -33 -15 -41 -8 -9 -20 -34 -27 -55 -16
-48 -52 -76 -106 -83 -40 -5 -41 -5 -51 33 -5 22 -15 107 -21 189 -17 225 -39
413 -56 475 -9 30 -21 78 -28 105 -8 31 -18 50 -27 50 -22 0 -23 -69 0 -134
29 -84 38 -152 57 -449 19 -297 22 -282 -57 -282 -54 0 -67 9 -134 98 -26 35
-52 61 -58 59 -7 -2 -29 -35 -50 -73 -46 -85 -68 -104 -119 -104 -59 0 -78 14
-78 58 0 20 -5 64 -10 98 -5 33 -21 148 -35 255 -13 107 -31 220 -40 252 -8
32 -15 60 -15 62 0 3 -7 5 -15 5 -9 0 -15 -9 -15 -22 0 -38 59 -497 75 -588
21 -116 22 -110 -34 -110 -63 0 -72 9 -132 138 -43 91 -51 103 -71 100 -20 -3
-56 -47 -113 -143 -10 -16 -16 -16 -92 5 -89 24 -106 37 -121 90 -5 19 -35 94
-66 167 -31 72 -61 159 -67 193 -13 84 -56 214 -91 280 l-30 55 5 200 c2 110
7 208 12 218 5 12 18 17 45 17 40 0 67 21 70 55 5 50 -3 76 -51 150 -28 44
-90 159 -139 255 -144 287 -201 435 -244 636 -13 60 -36 153 -50 208 -39 148
-33 337 15 445 19 43 20 44 39 26 26 -23 25 -14 -2 38 -31 59 -27 127 16 284
20 72 39 160 42 195 3 34 12 86 20 113 7 28 20 111 29 185 20 175 43 251 105
342 89 130 41 116 394 114 333 -1 333 -1 320 54 -11 50 -23 53 -201 61 -210
10 -416 35 -502 61 -188 58 -393 204 -493 351 -51 76 -68 116 -84 208 -8 49
-29 109 -58 169 -26 51 -46 99 -46 107 0 7 18 59 39 116 23 60 44 139 51 187
14 103 108 559 120 579 6 12 11 7 23 -19 36 -86 170 -220 267 -265 54 -25 178
-17 253 18 119 54 279 207 328 312 41 87 57 190 40 263 -7 31 -19 86 -26 121
-18 81 -133 287 -195 348 -58 58 -175 115 -293 144 l-97 23 -52 -21 c-29 -12
-73 -27 -98 -33 -70 -19 -114 -70 -130 -152 -6 -37 -10 -95 -9 -129 3 -41 0
-63 -7 -66 -17 -6 -22 56 -29 327 -8 285 -14 334 -65 511 -22 76 -56 211 -75
301 -49 232 -84 333 -157 452 -88 145 -104 174 -96 181 3 3 55 -12 114 -35
123 -46 447 -130 602 -155 147 -25 277 -17 402 23 52 16 120 35 150 42 69 15
241 63 345 97 44 14 121 50 171 79 83 49 96 54 151 54 59 0 62 1 107 48 25 26
46 50 46 55 0 20 19 2 35 -34 16 -34 40 -59 58 -59 3 0 8 11 11 24 8 34 156
188 203 211 21 11 63 36 93 56 113 74 217 118 340 144 36 7 83 18 105 24 78
21 347 13 523 -14 163 -26 204 -36 231 -58 8 -7 24 -13 35 -14 12 -1 33 -5 48
-9 19 -4 36 -1 54 11 23 15 25 22 20 54 -7 43 -50 153 -78 199 -11 18 -33 74
-48 125 -62 204 -109 304 -194 417 -31 40 -56 81 -56 91 0 26 -90 200 -167
322 -86 136 -211 283 -379 446 -156 152 -205 188 -275 201 -78 15 -204 12
-246 -5 -20 -9 -85 -63 -145 -122 -59 -59 -108 -102 -108 -96 0 6 9 40 20 76
37 118 133 224 259 283 116 55 169 57 341 10z m-109 -196 c21 -6 69 -40 120
-86 46 -42 99 -88 116 -101 18 -14 72 -71 120 -127 48 -55 108 -123 134 -151
68 -72 131 -175 230 -375 48 -97 105 -198 127 -226 49 -63 69 -102 116 -226
49 -131 119 -448 99 -448 -5 0 -34 9 -64 20 -31 10 -87 22 -125 26 -38 3 -123
15 -189 25 -191 30 -401 22 -479 -18 -17 -9 -67 -24 -112 -34 -100 -22 -193
-59 -242 -97 -20 -15 -58 -40 -83 -55 -26 -14 -94 -70 -153 -122 l-106 -96
-17 36 c-15 31 -15 40 -4 68 26 64 31 136 25 352 -8 313 -17 394 -48 448 -17
29 -26 59 -26 88 -1 54 -32 132 -88 218 -23 35 -42 69 -42 76 0 6 34 115 75
241 83 256 102 292 229 436 100 114 147 138 265 138 48 0 102 -5 122 -10z
m4812 -245 c8 -8 18 -43 22 -77 4 -35 22 -157 41 -273 25 -148 34 -231 31
-280 -7 -121 -36 -298 -57 -354 -12 -29 -25 -89 -31 -133 -5 -44 -30 -150 -55
-236 -67 -234 -92 -344 -100 -440 -7 -91 -17 -132 -33 -132 -5 0 -29 21 -52
48 -24 26 -107 110 -185 187 -116 115 -154 147 -210 174 -38 18 -88 43 -112
54 -36 18 -60 22 -145 21 -91 0 -114 -5 -210 -38 -112 -38 -139 -39 -158 -5
-12 23 -1 65 41 149 15 30 39 91 54 135 14 45 43 110 64 145 21 36 53 103 72
150 19 47 53 112 77 145 23 33 62 95 87 137 25 42 50 80 56 83 6 4 19 23 29
43 11 20 52 75 91 122 39 47 78 99 86 116 25 52 156 171 221 201 135 63 340
94 376 58z m-6563 -265 c187 -17 476 -98 640 -180 169 -84 265 -170 288 -256
14 -53 82 -192 135 -281 45 -72 64 -163 77 -362 14 -198 4 -269 -52 -381 -24
-48 -49 -85 -57 -85 -11 0 -20 25 -32 86 -24 121 -75 210 -112 196 -23 -9
-133 -310 -152 -418 -5 -27 -2 -40 11 -53 23 -23 5 -36 -53 -36 l-42 0 6 188
c6 195 -10 572 -28 679 -7 40 -18 68 -31 80 -21 18 -21 18 -15 -27 4 -25 10
-245 14 -490 7 -490 8 -475 -53 -468 -20 2 -30 11 -37 33 -5 17 -36 107 -69
200 -59 166 -85 225 -100 225 -26 0 -110 -139 -138 -228 -10 -31 -21 -101 -25
-154 l-7 -96 56 -18 c31 -10 56 -21 56 -24 0 -4 -17 -12 -37 -18 -49 -15 -74
1 -108 68 -39 76 -55 176 -100 629 -31 310 -43 395 -60 418 -13 17 -14 17 -21
-1 -4 -10 3 -102 15 -205 12 -102 29 -244 36 -316 8 -71 19 -177 25 -235 21
-193 68 -370 102 -383 11 -4 11 -7 0 -18 -28 -30 -350 -6 -487 35 -56 17 -94
41 -83 52 4 3 45 5 90 3 151 -6 197 -3 220 17 49 45 42 97 -30 229 -27 50 -55
106 -61 126 -6 20 -26 53 -44 74 l-33 38 -32 -17 c-52 -27 -77 -96 -107 -300
-21 -150 -24 -151 -59 -25 -13 46 -44 143 -70 214 -65 185 -80 291 -72 533 4
150 3 193 -7 189 -24 -8 -38 -120 -40 -322 -1 -179 1 -207 20 -270 12 -38 25
-92 28 -120 4 -27 18 -66 32 -87 25 -36 103 -245 103 -275 0 -12 -8 -14 -38
-9 -22 3 -55 12 -74 20 -30 13 -36 21 -42 56 -3 22 -18 66 -32 97 -14 32 -32
77 -39 100 -13 43 -66 135 -123 216 -44 62 -63 59 -80 -13 -7 -30 -18 -75 -24
-100 -6 -25 -14 -90 -17 -144 l-6 -99 -59 74 c-145 182 -152 207 -136 502 22
428 38 516 117 671 59 114 147 205 250 259 39 20 98 57 130 81 99 74 224 111
423 126 58 4 112 8 120 8 8 1 67 -3 130 -8z m945 -1415 c36 -134 -24 -284
-117 -288 -29 -2 -33 1 -36 26 -8 70 92 327 127 327 5 0 16 -29 26 -65z
m-1724 -181 c73 -150 91 -204 68 -203 -8 0 -52 17 -99 38 l-85 39 1 113 c0 63
4 132 8 154 7 38 8 39 23 20 9 -11 46 -83 84 -161z m486 154 c5 -7 15 -31 22
-53 8 -22 27 -59 43 -83 50 -73 93 -173 81 -191 -16 -25 -80 -36 -130 -23 -24
7 -57 12 -73 12 -28 0 -30 3 -30 38 0 20 7 64 14 97 8 33 17 87 21 120 10 85
29 114 52 83z m662 -95 c18 -60 46 -139 62 -176 42 -96 37 -107 -54 -107 -96
0 -145 14 -153 44 -13 52 15 179 57 264 23 45 45 82 48 82 4 0 22 -48 40 -107z
m5502 -1208 c1 -17 -18 -17 -25 0 -4 11 -1 15 10 13 8 -2 15 -7 15 -13z m-566
-70 c37 -36 48 -72 19 -61 -21 8 -54 -20 -54 -46 0 -14 -8 -18 -34 -18 -51 0
-66 9 -66 38 0 25 -1 25 -17 9 -16 -16 -18 -38 -17 -175 1 -132 5 -166 22
-214 15 -41 17 -58 9 -58 -20 0 -136 72 -183 113 l-44 39 76 146 c87 167 125
227 156 243 20 11 21 9 15 -20 -7 -34 7 -40 44 -21 15 8 17 15 9 29 -5 10 -6
21 -3 25 14 13 35 4 68 -29z m649 19 c9 -22 -3 -32 -14 -14 -12 19 -12 30 -1
30 5 0 12 -7 15 -16z m-38 -41 c9 -27 34 -93 56 -149 21 -55 38 -107 38 -115
0 -11 -108 -103 -155 -131 -13 -8 7 92 25 124 13 24 13 210 -1 244 -11 30 -5
74 10 74 5 0 17 -21 27 -47z m-426 -58 c9 -24 0 -109 -14 -122 -3 -4 -16 -1
-29 5 -12 6 -31 12 -42 14 -15 2 -20 11 -20 33 0 28 3 30 43 33 43 3 50 10 31
29 -12 12 -4 33 12 33 5 0 14 -11 19 -25z m546 -121 c16 -38 18 -74 5 -74 -9
0 -41 83 -41 107 0 23 21 3 36 -33z m64 -160 c0 -8 -4 -14 -10 -14 -5 0 -10 9
-10 21 0 11 5 17 10 14 6 -3 10 -13 10 -21z m-310 -84 c-12 -17 -24 -29 -27
-26 -3 3 5 19 17 36 12 17 24 29 27 26 3 -3 -5 -19 -17 -36z m-6293 -417 c-3
-10 -5 -4 -5 12 0 17 2 24 5 18 2 -7 2 -21 0 -30z m2004 -753 c100 -102 135
-148 123 -160 -11 -11 -222 -90 -240 -90 -18 0 -24 36 -24 147 0 110 19 183
48 183 8 0 50 -36 93 -80z m1290 -78 c-17 -31 -117 -120 -188 -166 -67 -43
-123 -66 -123 -51 0 4 27 38 61 76 89 101 172 156 237 158 19 1 21 -2 13 -17z
m-247 -88 c-39 -51 -134 -121 -223 -165 -89 -43 -261 -99 -307 -99 -39 0 -135
68 -113 80 8 4 113 36 234 70 275 78 384 115 404 134 29 30 32 16 5 -20z
m-814 -101 l53 -57 -31 -13 c-54 -22 -266 -73 -303 -73 -28 0 -41 6 -53 25
-20 31 -20 59 -1 75 18 15 242 98 266 99 10 1 41 -25 69 -56z m4490 -110 c0
-27 -1 -27 -35 -11 -29 13 -31 24 -8 50 16 18 18 18 30 2 7 -10 13 -28 13 -41z
m-3727 -94 c-119 -155 -147 -179 -187 -161 -19 8 -23 16 -19 34 13 50 257 268
301 268 7 0 -35 -63 -95 -141z m-73 94 c0 -5 -93 -111 -181 -207 -17 -18 -19
-17 -79 34 -71 63 -81 51 105 127 126 51 155 60 155 46z m-539 -42 c16 -16 29
-33 29 -38 0 -4 -30 -20 -67 -35 -38 -15 -122 -50 -188 -77 -66 -28 -135 -50
-152 -51 -39 0 -62 29 -70 89 -7 50 12 64 117 86 41 8 102 24 135 34 33 11 84
20 113 20 46 1 57 -3 83 -28z m44 -107 c-35 -27 -238 -146 -280 -164 -22 -10
-46 -25 -54 -34 -20 -23 -48 -20 -67 9 -24 37 -9 48 114 90 59 19 145 53 192
74 91 42 130 52 95 25z m197 -51 c38 -25 68 -49 68 -53 0 -14 -310 -277 -382
-324 -25 -17 -27 -16 -84 32 -33 28 -76 68 -97 89 l-38 40 48 35 c26 20 68 46
93 58 25 12 58 32 75 44 35 24 225 124 240 125 5 1 40 -20 77 -46z m3677 -82
c60 -67 71 -85 71 -115 0 -20 -4 -36 -9 -36 -14 0 -60 59 -67 86 -3 13 -12 24
-19 24 -17 0 -75 48 -75 61 0 6 5 7 10 4 18 -11 11 8 -12 32 l-21 23 25 0 c19
0 43 -20 97 -79z m-155 -73 c38 -40 102 -110 143 -155 l75 -83 -36 -45 c-21
-25 -83 -77 -139 -116 -56 -39 -138 -97 -182 -129 -44 -33 -118 -78 -165 -101
-47 -23 -119 -59 -161 -80 -41 -20 -104 -45 -140 -55 -72 -20 -211 -78 -249
-104 -35 -24 -48 -27 -200 -45 -218 -26 -369 -35 -456 -27 -70 7 -89 13 -152
51 -67 40 -73 42 -107 31 -19 -6 -39 -18 -43 -27 -6 -10 -30 -17 -74 -20 -75
-6 -469 13 -555 27 -32 6 -133 17 -224 25 -177 15 -205 24 -401 126 -31 16
-67 29 -79 29 -25 0 -270 131 -309 165 -14 12 -52 37 -85 55 -76 42 -95 58
-95 83 0 12 54 76 138 161 75 78 163 170 195 205 57 62 58 63 99 57 22 -4 82
-29 132 -56 159 -85 316 -126 546 -140 158 -10 207 -20 380 -81 63 -23 147
-51 185 -64 203 -67 570 -53 755 29 41 19 91 39 111 45 19 6 66 31 103 56 82
53 147 79 258 100 264 51 357 70 483 101 77 19 144 39 149 44 18 18 31 10 100
-62z m126 -62 c-1 -6 -28 18 -60 54 -33 35 -60 69 -60 75 1 5 28 -19 60 -54
33 -35 60 -69 60 -75z m-3479 107 c16 -10 29 -21 29 -25 0 -4 -33 -47 -73 -95
-76 -92 -202 -213 -269 -259 l-38 -27 -55 37 c-30 20 -55 40 -55 45 0 13 68
80 108 105 21 13 55 42 77 65 21 23 45 41 52 41 7 0 25 14 40 31 41 46 113 99
135 99 11 0 33 -8 49 -17z m3599 -223 c0 -14 -14 -12 -28 2 -19 19 -14 30 8
18 11 -6 20 -15 20 -20z m116 -68 c54 -39 194 -172 194 -183 0 -13 -24 1 -99
58 -35 26 -88 64 -120 84 -31 20 -57 43 -59 53 -5 26 40 20 84 -12z m-2211
-742 c10 -8 24 -30 32 -47 17 -42 62 -64 140 -71 71 -5 93 5 93 47 0 68 -1 67
127 59 234 -15 309 -41 408 -142 80 -81 123 -156 212 -372 l57 -139 4 -192 c3
-168 0 -213 -23 -365 -14 -95 -34 -204 -45 -243 -11 -38 -29 -114 -40 -168
-11 -53 -27 -112 -36 -130 -24 -45 -174 -197 -271 -273 -86 -68 -255 -147
-385 -180 -81 -21 -385 -15 -463 9 -27 9 -81 19 -120 22 -96 9 -138 21 -224
64 -156 77 -268 266 -305 517 -9 55 -23 133 -32 174 -24 115 -31 488 -11 605
21 116 49 201 98 299 22 43 55 119 74 168 18 49 42 99 52 110 38 43 253 178
283 178 19 0 160 73 160 83 0 16 195 4 215 -13z m197 -17 c22 -20 23 -49 3
-57 -26 -10 -73 5 -97 31 -23 24 -23 25 -3 39 24 18 70 12 97 -13z m-4405
-1005 c-2 -29 -9 -71 -15 -93 -15 -59 -35 -341 -27 -394 3 -25 21 -102 40
-171 18 -69 38 -157 44 -197 12 -80 40 -163 111 -327 65 -152 130 -286 185
-381 38 -65 46 -86 41 -115 -2 -19 -12 -80 -20 -135 -10 -57 -20 -218 -25
-375 l-9 -275 59 -112 c33 -61 70 -142 83 -180 27 -78 104 -262 144 -343 33
-68 59 -81 322 -171 l185 -64 187 -3 c358 -7 1004 59 1207 123 135 43 191 99
231 232 16 52 27 72 41 76 11 3 166 3 346 0 l325 -6 18 -41 c9 -23 20 -57 24
-77 3 -20 18 -64 31 -98 14 -33 25 -68 25 -77 0 -19 24 -50 87 -117 34 -35 79
-65 162 -107 162 -81 275 -147 352 -206 l67 -51 98 -8 c54 -4 133 -16 174 -27
86 -23 206 -20 333 9 40 9 106 23 149 32 51 11 82 24 95 38 13 16 42 26 103
38 114 22 262 68 372 115 50 22 106 42 124 46 19 3 32 10 29 14 -5 8 136 169
160 182 7 4 73 24 146 43 176 47 613 193 748 250 121 51 150 76 181 155 12 30
30 69 40 86 15 27 17 42 9 120 -11 118 -39 653 -39 758 0 97 14 180 41 244 26
61 221 352 234 349 15 -4 87 -147 136 -267 23 -58 68 -152 100 -210 31 -58 65
-133 74 -165 23 -82 70 -165 185 -330 53 -77 126 -189 160 -250 34 -60 84
-139 110 -175 70 -96 95 -144 135 -260 20 -58 60 -156 90 -217 30 -62 61 -134
68 -160 8 -27 33 -89 56 -139 22 -51 41 -96 41 -102 0 -12 -61 -72 -73 -72 -6
0 -83 -40 -171 -90 -245 -136 -280 -148 -511 -165 -114 -9 -156 -25 -340 -130
-82 -47 -175 -93 -205 -101 -59 -16 -272 -84 -356 -114 -27 -9 -111 -45 -186
-78 -160 -72 -185 -76 -548 -92 -281 -12 -332 -19 -430 -60 -78 -32 -132 -43
-293 -61 -60 -6 -134 -18 -165 -26 -79 -21 -471 -29 -675 -13 -87 6 -202 20
-256 31 -85 17 -179 21 -826 33 -401 8 -819 20 -928 27 -226 13 -210 14 -577
-40 -151 -22 -363 -49 -470 -61 -107 -12 -251 -30 -320 -40 -138 -21 -338 -34
-775 -50 -352 -13 -370 -10 -397 62 -17 45 -21 76 -53 338 -8 69 -24 154 -35
190 -12 38 -25 119 -31 195 -5 72 -17 173 -25 225 -27 178 -35 415 -44 1325
-8 864 -13 995 -40 1085 -21 72 -34 381 -22 552 9 137 17 183 47 283 19 66 42
154 51 195 9 41 25 87 35 101 42 59 152 118 222 119 29 0 29 0 24 -52z m7338
-197 c7 -45 -3 -131 -16 -131 -5 0 -9 41 -9 91 0 92 13 112 25 40z m-521
-2458 c8 -19 -20 -109 -36 -119 -12 -8 -6 105 7 125 9 16 22 13 29 -6z m-490
-179 c12 -88 10 -91 -45 -120 -28 -14 -53 -23 -55 -21 -7 6 41 130 61 161 24
37 31 33 39 -20z m-3729 6 c20 -38 19 -40 -11 -40 -26 0 -26 -1 -20 -52 6 -41
5 -50 -5 -41 -12 12 -15 108 -4 143 9 28 22 25 40 -10z m3255 -102 c24 -52 25
-96 4 -126 -19 -27 -34 -28 -34 -2 0 15 -13 7 -57 -38 -32 -32 -64 -67 -71
-77 -11 -17 -12 -14 -8 28 7 60 21 87 46 87 11 0 20 6 20 14 0 15 69 156 76
156 3 0 14 -19 24 -42z m-4775 -150 c19 -66 19 -68 -4 -68 -20 0 -51 34 -51
57 0 21 19 63 29 63 6 0 17 -23 26 -52z m1103 2 c-2 -40 -7 -50 -20 -50 -21 0
-22 11 -7 63 15 54 31 46 27 -13z m-558 -60 c0 -30 -30 -57 -50 -45 -14 9 -12
22 6 50 23 35 44 32 44 -5z m2409 -171 c15 -43 14 -59 -5 -66 -15 -6 -64 32
-64 50 0 15 31 47 46 47 6 0 17 -14 23 -31z m1079 -97 c2 -32 -1 -44 -13 -48
-25 -10 -33 7 -23 54 12 54 32 50 36 -6z m-572 -47 c13 -31 24 -60 24 -65 0
-16 -60 -12 -66 5 -4 8 -13 15 -21 15 -11 0 -13 -7 -9 -26 5 -17 3 -23 -4 -19
-5 3 -10 15 -10 26 0 27 40 119 52 119 5 0 20 -25 34 -55z"/>
<path d="M5363 10514 c-19 -8 -16 -32 5 -42 44 -24 192 -25 192 -2 0 23 -164
59 -197 44z"/>
<path d="M2322 10198 c-8 -8 -12 -50 -12 -121 0 -77 -7 -146 -25 -231 -39
-196 -45 -235 -55 -387 -5 -79 -17 -178 -26 -219 -28 -124 -14 -523 22 -623 9
-23 26 -97 39 -163 13 -67 31 -139 40 -160 9 -22 34 -86 54 -144 55 -152 69
-176 181 -299 104 -113 185 -185 201 -175 12 7 12 44 0 44 -23 0 -146 119
-208 201 -86 115 -110 154 -118 198 -4 19 -24 80 -45 136 -35 92 -83 287 -110
443 -14 80 -14 502 0 675 14 168 25 253 55 402 31 154 50 371 36 408 -12 31
-13 31 -29 15z"/>
<path d="M2819 9724 c-88 -129 -134 -281 -125 -416 13 -197 65 -344 153 -434
74 -75 206 -180 244 -193 87 -28 293 -34 341 -9 35 17 181 -33 253 -88 50 -38
256 -133 315 -145 71 -15 344 -5 426 15 116 29 279 88 327 118 58 37 97 91 97
134 0 49 -36 156 -87 255 -53 104 -114 165 -232 235 -115 67 -180 84 -326 84
-154 0 -217 -18 -343 -97 -103 -65 -232 -167 -232 -184 0 -6 7 -8 16 -5 8 3
-12 -25 -46 -62 -33 -37 -75 -91 -93 -121 -50 -84 -81 -96 -247 -96 -154 0
-141 -5 -280 101 -65 48 -108 90 -129 123 -43 66 -81 175 -81 231 0 25 -7 72
-15 103 -8 32 -15 82 -15 112 0 83 67 255 131 336 16 20 26 39 22 43 -17 17
-45 2 -74 -40z m1495 -540 c8 -20 8 -24 -1 -24 -17 0 -35 19 -29 29 10 16 23
14 30 -5z m76 -45 c0 -5 -4 -9 -8 -9 -9 0 -32 44 -32 58 1 10 40 -38 40 -49z
m37 -34 c-21 -44 -21 -49 -2 -41 11 4 15 -1 15 -19 0 -37 52 -57 107 -40 16 5
23 2 28 -15 10 -33 17 -17 10 24 -5 24 -13 36 -24 36 -12 0 -16 10 -17 45 -1
40 1 43 18 34 37 -20 96 -87 138 -158 46 -78 100 -219 100 -265 0 -54 -111
-132 -203 -143 -23 -3 -60 -13 -82 -24 -41 -18 -216 -61 -223 -54 -13 12 11
33 44 40 21 4 57 18 80 31 22 13 47 24 56 24 38 0 96 94 105 170 6 55 -6 80
-40 80 -34 0 -87 59 -87 96 0 18 -4 36 -10 39 -6 3 -10 -5 -10 -19 0 -81 -53
-104 -76 -31 -6 22 -12 32 -13 23 -1 -10 -2 -18 -4 -18 -1 0 -17 -4 -34 -9
-28 -8 -39 -5 -77 21 -51 33 -108 110 -100 133 4 8 28 25 54 37 40 18 47 25
37 36 -10 12 -5 13 33 8 67 -11 80 -16 80 -32 0 -20 54 -18 75 2 9 10 14 26
11 37 -5 19 -4 19 11 4 16 -15 16 -19 0 -52z m73 -76 c0 -16 -19 -9 -30 10
-17 33 -11 48 10 22 11 -13 20 -27 20 -32z m-746 -61 c-19 -91 -17 -137 11
-225 47 -146 120 -213 233 -213 41 0 64 -5 72 -15 7 -9 29 -15 52 -15 24 0 37
-4 33 -10 -9 -15 -88 -12 -111 4 -10 8 -23 11 -29 6 -26 -20 -226 63 -308 129
-33 25 -73 44 -165 76 -16 6 52 107 98 149 16 14 39 45 51 68 19 39 66 108 73
108 1 0 -3 -28 -10 -62z m256 -408 c0 -5 -7 -10 -15 -10 -8 0 -15 5 -15 10 0
6 7 10 15 10 8 0 15 -4 15 -10z m214 -71 c-7 -11 -15 -11 -34 1 -13 9 -13 11
0 19 16 11 43 -5 34 -20z"/>
<path d="M4603 8815 c0 -38 2 -53 4 -32 2 20 2 52 0 70 -2 17 -4 1 -4 -38z"/>
<path d="M4572 8618 c-14 -14 -16 -28 -3 -28 9 0 24 30 18 36 -2 2 -9 -2 -15
-8z"/>
<path d="M5130 8018 c0 -72 149 -206 314 -284 95 -45 195 -56 271 -30 64 21
233 135 295 198 59 60 87 138 49 138 -5 0 -23 -25 -40 -55 -33 -59 -64 -87
-176 -158 -180 -115 -225 -122 -368 -58 -49 22 -96 41 -102 41 -18 0 -147 124
-189 181 -39 54 -54 61 -54 27z"/>
<path d="M5500 7274 c-30 -19 -89 -48 -130 -65 -41 -16 -110 -48 -153 -70 -43
-21 -93 -39 -110 -39 -18 -1 -49 -7 -70 -14 -33 -12 -39 -12 -44 0 -7 19 -80
56 -101 52 -12 -2 -9 -11 17 -40 18 -21 48 -47 68 -59 30 -19 39 -20 55 -10
11 7 45 16 76 21 35 6 99 31 166 65 59 30 115 55 124 55 8 0 44 16 79 35 35
19 73 35 83 35 11 0 104 -43 206 -95 167 -85 192 -95 240 -95 45 0 59 5 89 31
35 31 47 69 21 69 -8 0 -37 -15 -65 -34 l-51 -35 -192 97 c-106 54 -204 105
-218 115 -13 9 -27 17 -30 16 -3 0 -30 -16 -60 -35z"/>
<path d="M7375 5901 c-21 -10 -286 -272 -308 -306 -7 -11 -30 -65 -51 -120
-21 -55 -44 -112 -52 -127 -8 -14 -20 -60 -28 -102 -8 -41 -19 -84 -25 -94 -5
-10 -29 -93 -52 -183 -39 -151 -43 -174 -43 -289 0 -146 19 -207 73 -234 53
-28 77 -21 118 33 21 27 48 54 60 60 12 6 29 26 37 46 8 19 38 59 66 89 27 29
50 57 50 63 0 5 16 24 35 43 19 19 35 39 35 45 0 5 20 35 45 65 57 69 165 287
199 400 69 233 74 450 13 542 -37 55 -124 89 -172 69z"/>
<path d="M1299 4937 c-34 -26 -62 -113 -116 -361 -5 -22 -13 -41 -20 -43 -6
-2 -20 22 -32 54 l-20 58 6 -50 c3 -27 12 -63 20 -78 8 -16 19 -83 24 -150 12
-145 23 -193 49 -207 16 -9 20 -21 20 -65 0 -29 5 -66 11 -82 6 -15 15 -61 20
-102 5 -41 12 -78 17 -83 4 -4 33 -3 64 3 53 11 59 15 102 74 87 119 105 187
113 420 6 199 -7 357 -32 385 -8 9 -15 22 -15 28 0 7 -13 38 -30 69 -16 31
-30 64 -30 75 0 35 -45 68 -92 68 -24 0 -50 -6 -59 -13z"/>
<path d="M583 10995 c0 -27 2 -38 4 -22 2 15 2 37 0 50 -2 12 -4 0 -4 -28z"/>
<path d="M1301 10461 c-1 -34 2 -42 11 -33 8 8 8 20 1 44 l-11 33 -1 -44z"/>
<path d="M7054 6835 c11 -8 22 -12 25 -9 6 6 -19 24 -34 24 -5 -1 -1 -7 9 -15z"/>
<path d="M5331 5476 c-20 -11 -21 -14 -6 -19 9 -4 26 -7 38 -7 18 0 14 -8 -28
-51 -59 -59 -105 -88 -105 -65 0 8 4 26 10 40 12 32 -8 36 -35 6 -25 -27 -53
-25 -65 4 -22 60 -104 74 -128 23 -17 -35 -58 -52 -89 -38 -18 8 -23 19 -23
46 0 38 -10 44 -34 19 -32 -31 -13 -85 56 -160 l40 -44 -41 -48 c-58 -71 -109
-114 -203 -175 -88 -57 -114 -81 -119 -110 -6 -29 -22 -23 -47 19 l-24 39 6
-34 c8 -45 29 -86 43 -86 7 0 20 -10 28 -22 35 -50 112 -23 221 79 111 103
123 89 44 -49 -27 -48 -50 -95 -50 -103 0 -9 -16 -31 -35 -49 -19 -17 -35 -37
-35 -43 0 -6 -10 -22 -22 -35 -19 -20 -20 -27 -11 -58 13 -43 -1 -47 -16 -5
-5 17 -15 30 -20 30 -6 0 -11 12 -11 26 0 16 -4 23 -11 18 -16 -9 -3 -62 26
-106 17 -26 36 -40 62 -47 56 -16 57 -15 117 39 l55 51 13 -48 c13 -45 16 -48
50 -51 45 -4 55 12 66 96 4 31 12 57 17 57 6 -1 21 -20 33 -43 l24 -43 61 3
62 3 8 100 c17 211 67 383 121 416 47 29 77 24 104 -17 28 -45 28 -60 -3 -80
-24 -15 -27 -15 -44 0 -17 16 -20 15 -45 -19 -15 -19 -41 -65 -59 -103 -49
-104 -41 -220 19 -292 31 -36 112 -64 168 -58 56 7 144 50 199 98 68 60 93
122 112 272 14 118 14 130 -2 163 -16 34 -16 36 3 49 10 8 16 18 12 22 -4 4
-14 1 -22 -6 -12 -10 -21 -8 -45 9 -39 28 -87 37 -107 20 -25 -21 -42 10 -37
68 4 41 1 51 -20 71 l-25 23 -53 -47 c-52 -46 -126 -87 -141 -78 -4 3 -8 19
-8 36 0 32 42 80 123 141 20 15 40 39 43 54 10 36 -21 89 -59 102 -41 15 -127
13 -156 -3z m-255 -91 c-3 -9 -11 -13 -16 -10 -8 5 -7 11 1 21 14 18 24 11 15
-11z m-101 -55 c3 -5 -3 -10 -15 -10 -12 0 -18 5 -15 10 3 6 10 10 15 10 5 0
12 -4 15 -10z m103 -109 c15 -9 34 -79 23 -86 -13 -8 -81 45 -81 64 0 30 28
41 58 22z m212 0 c0 -14 -18 -23 -30 -16 -6 4 -8 11 -5 16 8 12 35 12 35 0z
m-60 -50 c0 -5 -20 -60 -44 -123 -24 -62 -53 -149 -66 -193 -51 -182 -60 -202
-74 -152 -16 59 -5 125 38 238 52 139 71 176 104 212 26 27 42 34 42 18z m465
-176 c34 -33 32 -77 -5 -142 -27 -48 -74 -92 -85 -81 -2 2 2 26 10 53 19 63
19 100 -2 135 -14 24 -14 31 -4 44 20 23 59 19 86 -9z m-190 -112 c-3 -16 -18
-45 -33 -67 -15 -21 -37 -54 -48 -73 -12 -19 -28 -42 -37 -50 -13 -14 -17 -13
-37 7 -27 27 -21 59 18 109 15 18 32 43 39 54 18 32 43 47 76 47 27 0 29 -2
22 -27z m157 -125 c7 -18 -2 -39 -13 -32 -12 7 -12 44 0 44 5 0 11 -6 13 -12z
m-122 -104 l41 -17 -36 -37 c-35 -35 -40 -37 -69 -28 -37 13 -66 36 -66 53 0
17 40 44 67 44 13 1 41 -6 63 -15z"/>
<path d="M4970 5445 c0 -8 5 -15 10 -15 6 0 10 7 10 15 0 8 -4 15 -10 15 -5 0
-10 -7 -10 -15z"/>
<path d="M4795 5368 c11 -37 48 -93 53 -80 4 12 -44 102 -54 102 -3 0 -2 -10
1 -22z"/>
<path d="M5181 4456 c-7 -8 -21 -12 -32 -9 -12 4 -29 -3 -43 -16 -12 -12 -26
-18 -29 -14 -4 3 -7 -5 -7 -20 0 -51 -29 -79 -44 -42 -3 8 -12 15 -20 15 -8 0
-19 8 -25 17 -7 14 -12 15 -24 4 -9 -7 -37 -16 -64 -19 -43 -6 -48 -10 -51
-34 -4 -32 25 -54 95 -72 l47 -12 -59 -24 c-62 -24 -95 -46 -95 -63 0 -6 9 -2
20 8 27 25 33 15 20 -34 -12 -46 -25 -58 -45 -41 -7 6 -16 7 -19 2 -5 -9 10
-43 49 -108 24 -40 11 -59 -49 -74 -80 -20 -87 -26 -84 -67 3 -42 -11 -51 -55
-34 -21 8 -27 17 -27 42 0 27 -2 30 -15 19 -34 -28 -10 -79 45 -95 14 -4 28
-13 32 -19 5 -8 20 -4 47 12 22 12 42 22 45 22 16 0 3 -46 -19 -72 -32 -38
-28 -50 16 -60 77 -16 127 13 211 121 l26 35 -5 -60 c-7 -75 5 -87 116 -114
80 -20 101 -20 101 2 0 15 67 76 88 80 12 2 20 19 26 61 5 33 14 57 21 57 20
0 65 -40 65 -57 0 -26 -49 -82 -112 -129 l-59 -43 68 5 c77 6 169 29 178 44 4
6 21 16 39 24 17 7 55 36 84 64 62 60 67 89 23 133 -24 23 -38 29 -74 29 -27
0 -49 -6 -57 -15 -21 -25 -138 -15 -148 13 -9 29 77 46 343 68 72 6 82 9 112
39 38 38 42 73 13 100 -15 14 -28 16 -67 10 -72 -10 -199 -53 -277 -92 -37
-19 -74 -32 -82 -29 -9 3 -14 20 -14 44 0 25 -8 49 -21 66 l-22 28 21 21 c20
20 20 22 4 50 -17 29 -16 30 8 46 14 9 40 30 59 47 27 24 33 36 28 55 -12 48
-77 94 -77 54 0 -8 -6 -15 -14 -15 -7 0 -25 -9 -39 -20 -43 -34 -76 -3 -61 57
7 26 6 27 -10 14 -13 -11 -20 -11 -28 -3 -16 16 -63 15 -77 -2z m-143 -315
c10 -6 8 -15 -12 -38 -31 -37 -32 -47 -6 -80 26 -33 26 -63 1 -63 -21 0 -66
47 -76 79 -7 25 17 74 47 95 26 18 28 19 46 7z m73 -12 c11 -11 18 -23 16 -26
-7 -6 -57 27 -57 38 0 15 19 10 41 -12z m-31 -70 c-11 -19 -40 -27 -40 -10 0
15 31 42 41 35 5 -3 5 -13 -1 -25z m-125 -119 c4 -6 1 -18 -7 -27 -18 -22
-127 -73 -155 -73 -39 0 -25 18 28 37 28 10 63 30 78 44 28 29 46 35 56 19z
m218 -136 c8 -9 -21 -64 -33 -64 -13 0 -13 26 0 51 11 19 22 24 33 13z m87
-19 c0 -28 -74 -115 -87 -102 -12 12 16 57 42 67 14 5 25 16 25 25 0 8 5 15
10 15 6 0 10 -2 10 -5z m230 -47 c0 -14 -30 -48 -42 -48 -5 0 -2 14 7 30 16
30 35 40 35 18z"/>
<path d="M7904 2217 c-3 -9 -4 -24 -2 -34 3 -16 5 -15 17 6 9 16 10 26 2 34
-7 7 -12 6 -17 -6z"/>
<path d="M970 821 c0 -12 5 -21 10 -21 6 0 10 6 10 14 0 8 -4 18 -10 21 -5 3
-10 -3 -10 -14z"/>
</g>
</svg>
